HIERARCHY
ROOT Hips
{
 OFFSET 0.000000 0.000000 0.000000
 CHANNELS 6 Xposition Yposition Zposition Yrotation Xrotation Zrotation
 JOINT Chest
 {
  OFFSET 0.000000 9.910571 -0.011835
  CHANNELS 3 Yrotation Xrotation Zrotation
  JOINT Chest2
  {
   OFFSET 0.000000 10.789473 0.021497
   CHANNELS 3 Yrotation Xrotation Zrotation
   JOINT Chest3
   {
    OFFSET 0.000000 9.748205 0.000000
    CHANNELS 3 Yrotation Xrotation Zrotation
    JOINT Chest4
    {
     OFFSET 0.000000 9.748205 0.000000
     CHANNELS 3 Yrotation Xrotation Zrotation
     JOINT Neck
     {
      OFFSET 0.000000 13.998479 0.000000
      CHANNELS 3 Yrotation Xrotation Zrotation
      JOINT Head
      {
       OFFSET 0.000000 9.082285 0.051121
       CHANNELS 3 Yrotation Xrotation Zrotation
       End Site
       {
        OFFSET 0.000000 17.246134 0.026702
       }
      }
     }
     JOINT RightCollar
     {
      OFFSET -3.284495 7.824262 0.000000
      CHANNELS 3 Yrotation Xrotation Zrotation
      JOINT RightShoulder
      {
       OFFSET -15.534540 0.000000 0.000000
       CHANNELS 3 Yrotation Xrotation Zrotation
       JOINT RightElbow
       {
        OFFSET 0.000000 -28.251216 0.000000
        CHANNELS 3 Yrotation Xrotation Zrotation
        JOINT RightWrist
        {
         OFFSET 0.000000 -23.418114 0.012537
         CHANNELS 3 Yrotation Xrotation Zrotation
         End Site
         {
          OFFSET 0.000000 -17.723959 0.000000
         }
        }
       }
      }
     }
     JOINT LeftCollar
     {
      OFFSET 3.284495 7.824262 0.000000
      CHANNELS 3 Yrotation Xrotation Zrotation
      JOINT LeftShoulder
      {
       OFFSET 15.534540 0.000000 0.000000
       CHANNELS 3 Yrotation Xrotation Zrotation
       JOINT LeftElbow
       {
        OFFSET 0.000000 -28.251216 0.000000
        CHANNELS 3 Yrotation Xrotation Zrotation
        JOINT LeftWrist
        {
         OFFSET 0.000000 -23.418114 0.012537
         CHANNELS 3 Yrotation Xrotation Zrotation
         End Site
         {
          OFFSET 0.000000 -17.723959 0.000000
         }
        }
       }
      }
     }
    }
   }
  }
 }
 JOINT RightHip
 {
  OFFSET -8.142657 0.057990 0.005917
  CHANNELS 3 Yrotation Xrotation Zrotation
  JOINT RightKnee
  {
   OFFSET 0.000000 -49.716894 0.008478
   CHANNELS 3 Yrotation Xrotation Zrotation
   JOINT RightAnkle
   {
    OFFSET 0.000000 -43.994153 0.004166
    CHANNELS 3 Yrotation Xrotation Zrotation
    JOINT RightToe
    {
     OFFSET 0.000000 -7.619154 17.822051
     CHANNELS 3 Yrotation Xrotation Zrotation
     End Site
     {
      OFFSET 0.000000 -1.595627 7.159905
     }
    }
   }
  }
 }
 JOINT LeftHip
 {
  OFFSET 8.142657 0.057990 0.005917
  CHANNELS 3 Yrotation Xrotation Zrotation
  JOINT LeftKnee
  {
   OFFSET 0.000000 -49.716894 0.008478
   CHANNELS 3 Yrotation Xrotation Zrotation
   JOINT LeftAnkle
   {
    OFFSET 0.000000 -43.994153 0.004166
    CHANNELS 3 Yrotation Xrotation Zrotation
    JOINT LeftToe
    {
     OFFSET 0.000000 -7.619154 17.822051
     CHANNELS 3 Yrotation Xrotation Zrotation
     End Site
     {
      OFFSET 0.000000 -1.595627 7.159905
     }
    }
   }
  }
 }
}
MOTION
Frames: 16
Frame Time: 0.008333
245.839008 56.873834 256.056093 -56.637987 -54.325907 3.017055 -1.522834 22.721473 -1.230220 -0.504216 10.078264 -0.619279 -0.504216 10.078264 -0.619279 -0.366874 7.559222 -0.454862 3.061007 16.382782 2.895813 4.648640 -5.790348 4.282608 0.190961 9.107879 10.992501 48.417923 -32.940155 -37.063626 8.093738 -6.456000 -7.624649 17.994394 -14.259531 -52.188527 -0.571397 6.551800 -10.081639 -28.670649 -36.111780 29.221619 -22.620753 -12.925117 12.606326 -26.168049 -12.097151 46.069759 -11.960052 -30.196165 -6.914846 -123.338237 70.456839 -139.487269 -5.630282 -18.166595 6.335488 0.045780 0.534741 0.025686 8.011884 -32.410983 8.098507 149.153989 79.436908 154.189140 2.164926 -9.818347 -2.336017 -0.137751 -0.382965 -0.049905
245.836934 56.873090 256.054726 -56.650239 -54.321551 3.027648 -1.513263 22.728534 -1.230959 -0.500967 10.081181 -0.618989 -0.500967 10.081181 -0.618989 -0.364444 7.561406 -0.454696 3.060443 16.388815 2.894853 4.647998 -5.779133 4.281114 0.178472 9.097391 10.997815 48.435652 -32.936452 -37.085944 8.076671 -6.454001 -7.621141 17.916189 -14.324993 -52.133475 -0.578358 6.540352 -10.074266 -28.659730 -36.125386 29.215559 -22.563349 -12.947042 12.610563 -26.101329 -12.047515 45.822243 -11.953006 -30.200531 -6.913702 -123.347618 70.457827 -139.496750 -5.627501 -18.167632 6.333498 0.040144 0.534143 0.024412 8.027879 -32.415867 8.097580 149.154093 79.435684 154.196949 2.156308 -9.819793 -2.339120 -0.135680 -0.382470 -0.048663
245.835079 56.872059 256.053268 -56.646976 -54.316704 3.025221 -1.513661 22.731375 -1.232401 -0.499508 10.082737 -0.620319 -0.499508 10.082737 -0.620319 -0.363329 7.562573 -0.455713 3.065470 16.396263 2.894826 4.657420 -5.765344 4.279371 0.170602 9.091653 11.000415 48.450151 -32.940082 -37.100989 8.067000 -6.450562 -7.608883 17.816667 -14.384235 -52.084238 -0.575429 6.538317 -10.069613 -28.651935 -36.145137 29.217896 -22.470585 -12.991665 12.586570 -26.046354 -11.949436 45.530256 -11.959732 -30.202777 -6.908380 -123.347277 70.460767 -139.499563 -5.633400 -18.174717 6.334612 0.037461 0.540436 0.022799 8.042722 -32.424860 8.093055 149.177656 79.438361 154.234933 2.150280 -9.815262 -2.340043 -0.133967 -0.385456 -0.048438
245.832951 56.871517 256.051410 -56.644853 -54.310129 3.024846 -1.512877 22.734614 -1.234803 -0.499762 10.084055 -0.621482 -0.499762 10.084055 -0.621482 -0.363498 7.563563 -0.456578 3.068186 16.404221 2.893583 4.662991 -5.750579 4.276207 0.174861 9.085264 11.006114 48.460910 -32.936807 -37.111421 8.052345 -6.448502 -7.607838 17.706566 -14.441586 -52.044754 -0.570541 6.535084 -10.065496 -28.622672 -36.172795 29.216933 -22.397506 -13.025584 12.572679 -25.949210 -11.845372 45.154311 -11.965823 -30.210290 -6.904976 -123.355768 70.463591 -139.511091 -5.634461 -18.173839 6.333405 0.034618 0.538854 0.020544 8.057366 -32.432237 8.090880 149.181519 79.440930 154.249561 2.135702 -9.819409 -2.339827 -0.127502 -0.381830 -0.046658
245.830460 56.870441 256.047895 -56.639476 -54.302108 3.019239 -1.511733 22.738414 -1.232772 -0.499423 10.087154 -0.622671 -0.499423 10.087154 -0.622671 -0.363221 7.565888 -0.457470 3.071094 16.408272 2.891700 4.669106 -5.743057 4.271727 0.167804 9.067092 11.005690 48.468020 -32.935352 -37.109660 8.042959 -6.448991 -7.606556 17.600532 -14.499734 -52.024177 -0.572679 6.522354 -10.067394 -28.595535 -36.202623 29.212597 -22.276720 -13.074777 12.538890 -25.859312 -11.715399 44.706003 -11.971651 -30.217775 -6.898719 -123.365282 70.465357 -139.519233 -5.634209 -18.173965 6.331087 0.034229 0.537557 0.018634 8.071002 -32.446572 8.089916 149.196397 79.440638 154.278766 2.126079 -9.815999 -2.341012 -0.123751 -0.385154 -0.044939
245.827555 56.870064 256.043688 -56.636499 -54.297073 3.014504 -1.514384 22.745002 -1.235086 -0.499972 10.090996 -0.624925 -0.499972 10.090996 -0.624925 -0.363590 7.568771 -0.459142 3.077334 16.414215 2.889188 4.681655 -5.732039 4.264916 0.171566 9.047341 11.008713 48.471882 -32.931514 -37.108360 8.028231 -6.448313 -7.603526 17.497231 -14.549585 -52.021899 -0.567559 6.513413 -10.062676 -28.561648 -36.242415 29.208309 -22.160517 -13.108948 12.519988 -25.711027 -11.616715 44.142300 -11.978310 -30.219974 -6.889177 -123.358790 70.466598 -139.512765 -5.640754 -18.173800 6.330434 0.031434 0.538694 0.017829 8.086600 -32.457940 8.093489 149.219329 79.441364 154.312292 2.123682 -9.813546 -2.338689 -0.122163 -0.388331 -0.043319
245.823632 56.868604 256.039174 -56.634516 -54.293188 3.010527 -1.516726 22.747502 -1.238163 -0.499972 10.092467 -0.626364 -0.499972 10.092467 -0.626364 -0.363564 7.569876 -0.460217 3.083922 16.421925 2.889153 4.693977 -5.717776 4.262609 0.172402 9.045780 11.012792 48.483023 -32.928472 -37.115269 8.009835 -6.457682 -7.603771 17.414647 -14.577670 -52.024695 -0.563421 6.516055 -10.059439 -28.534269 -36.285062 29.202490 -21.978348 -13.169382 12.461718 -25.578760 -11.489301 43.534382 -11.982638 -30.219537 -6.880053 -123.347667 70.465004 -139.502965 -5.640237 -18.178883 6.333298 0.022159 0.542513 0.014876 8.097947 -32.470275 8.103786 149.281070 79.442465 154.382445 2.114181 -9.809211 -2.339551 -0.114890 -0.393715 -0.038430
245.822087 56.868965 256.038174 -56.639584 -54.291550 3.026403 -1.520479 22.753122 -1.257091 -0.498614 10.094268 -0.627244 -0.498614 10.094268 -0.627244 -0.362531 7.571226 -0.460896 3.090715 16.429634 2.886637 4.707568 -5.703483 4.255624 0.167841 9.044030 11.021318 48.511933 -32.927028 -37.125736 7.982938 -6.460633 -7.615696 17.369183 -14.587554 -52.025429 -0.565270 6.517683 -10.063033 -28.502039 -36.325882 29.216083 -21.822037 -13.212052 12.384368 -25.378698 -11.392752 43.028990 -11.975937 -30.221834 -6.887782 -123.359512 70.464116 -139.521249 -5.640332 -18.185432 6.337631 0.014532 0.543756 0.012985 8.105729 -32.460791 8.093163 149.244378 79.449447 154.339884 2.118303 -9.822064 -2.340049 -0.119987 -0.382176 -0.040052
245.820765 56.869430 256.037478 -56.633394 -54.291311 3.024365 -1.526240 22.758365 -1.263062 -0.499029 10.096036 -0.628548 -0.499029 10.096036 -0.628548 -0.362817 7.572554 -0.461863 3.096586 16.436424 2.883674 4.719597 -5.690883 4.248125 0.167418 9.040599 11.032200 48.523482 -32.925290 -37.135222 7.960725 -6.466892 -7.620828 17.370128 -14.576287 -52.026924 -0.557682 6.512005 -10.062637 -28.467746 -36.362683 29.218668 -21.677899 -13.241034 12.291102 -25.299325 -11.668997 42.907935 -11.985169 -30.219896 -6.887778 -123.343541 70.461876 -139.510281 -5.635690 -18.194337 6.334852 0.010378 0.548889 0.013095 8.077438 -32.454815 8.098382 149.252589 79.449406 154.328519 2.128604 -9.829640 -2.343547 -0.121902 -0.378806 -0.044229
245.820430 56.869782 256.038696 -56.629861 -54.289755 3.025360 -1.526036 22.761425 -1.266783 -0.497559 10.096739 -0.628216 -0.497559 10.096739 -0.628216 -0.361722 7.573079 -0.461638 3.099174 16.447065 2.878866 4.726223 -5.671086 4.238434 0.155624 9.046438 11.033411 48.534061 -32.940412 -37.146073 7.949001 -6.466890 -7.619360 17.401238 -14.530446 -52.021902 -0.563774 6.511875 -10.060178 -28.441958 -36.394331 29.225549 -21.563839 -13.234132 12.223643 -25.308193 -11.686783 43.177082 -11.983500 -30.219801 -6.894518 -123.341556 70.462304 -139.510538 -5.626006 -18.198261 6.339715 0.003114 0.550272 0.008093 8.103844 -32.457527 8.081852 149.287834 79.452869 154.377417 2.145141 -9.840426 -2.335270 -0.125964 -0.375418 -0.048215
245.820751 56.871549 256.039752 -56.633100 -54.286670 3.033263 -1.525979 22.767347 -1.273147 -0.498187 10.098262 -0.628759 -0.498187 10.098262 -0.628759 -0.362181 7.574222 -0.462032 3.105735 16.455715 2.875775 4.739591 -5.655033 4.230486 0.155664 9.047862 11.040379 48.546550 -32.957895 -37.161387 7.945513 -6.467955 -7.626450 17.473527 -14.435094 -52.011228 -0.567611 6.506243 -10.070356 -28.423836 -36.415961 29.249074 -21.439653 -13.288271 12.146958 -25.400613 -11.593208 43.501629 -11.981085 -30.223425 -6.903932 -123.340335 70.465699 -139.508279 -5.622751 -18.196957 6.336024 0.003278 0.548907 0.006708 8.161819 -32.459672 8.046012 149.290514 79.465205 154.423435 2.158912 -9.850647 -2.333181 -0.121848 -0.367841 -0.051490
245.819777 56.876808 256.039859 -56.637984 -54.289464 3.038779 -1.518466 22.780503 -1.274775 -0.496195 10.101577 -0.627826 -0.496195 10.101577 -0.627826 -0.360702 7.576706 -0.461364 3.108100 16.463329 2.871382 4.745624 -5.640857 4.221602 0.138888 9.043935 11.051532 48.553440 -32.976205 -37.185015 7.958120 -6.476110 -7.625252 17.571576 -14.306183 -51.961021 -0.583267 6.491537 -10.075516 -28.407655 -36.424348 29.260005 -21.412432 -13.286681 12.154971 -25.380351 -11.677524 43.646968 -11.980565 -30.216226 -6.903261 -123.341704 70.469637 -139.510933 -5.629573 -18.196825 6.335132 0.005434 0.547033 0.007492 8.205063 -32.452626 8.018938 149.228085 79.472630 154.400524 2.165162 -9.854193 -2.346579 -0.116809 -0.364732 -0.047113
245.820450 56.881531 256.041980 -56.639599 -54.287952 3.041792 -1.519141 22.787915 -1.282290 -0.497325 10.103654 -0.628093 -0.497325 10.103654 -0.628093 -0.361541 7.578265 -0.461543 3.115440 16.473654 2.865033 4.761616 -5.621655 4.207356 0.132284 9.044429 11.058265 48.571683 -32.999993 -37.203211 7.955626 -6.478990 -7.622195 17.684794 -14.152855 -51.887710 -0.576271 6.487074 -10.073411 -28.393556 -36.443015 29.261453 -21.389212 -13.306720 12.134331 -25.341701 -11.766610 43.671783 -11.982039 -30.216771 -6.907904 -123.333090 70.470997 -139.504761 -5.620551 -18.193135 6.332369 0.002557 0.542582 0.006641 8.226012 -32.446225 8.001721 149.112188 79.472439 154.302876 2.159058 -9.858802 -2.352179 -0.119614 -0.361435 -0.047054
245.821691 56.886990 256.044394 -56.639464 -54.282649 3.045863 -1.525594 22.797703 -1.291939 -0.499861 10.107798 -0.630665 -0.499861 10.107798 -0.630665 -0.363389 7.581377 -0.463420 3.124569 16.479812 2.858731 4.780869 -5.610197 4.192497 0.134609 9.032025 11.069780 48.572946 -33.024407 -37.232025 7.960848 -6.487406 -7.598215 17.795434 -14.018186 -51.792812 -0.563249 6.472174 -10.066662 -28.388587 -36.454303 29.272944 -21.372050 -13.325203 12.124648 -25.251825 -11.831390 43.604737 -11.981646 -30.220045 -6.913969 -123.352565 70.480727 -139.525177 -5.620489 -18.192012 6.329991 0.003358 0.539869 0.006219 8.217419 -32.439649 7.996821 149.074732 79.477550 154.255798 2.163179 -9.858192 -2.357007 -0.120959 -0.361932 -0.046922
245.822656 56.889122 256.045377 -56.639558 -54.263219 3.040470 -1.531572 22.808843 -1.290846 -0.502272 10.114296 -0.632982 -0.502272 10.114296 -0.632982 -0.365146 7.586256 -0.465105 3.133421 16.475927 2.850375 4.800252 -5.617346 4.173765 0.134017 8.992873 11.078645 48.595411 -33.035720 -37.261595 7.947387 -6.488951 -7.571136 17.881338 -13.918640 -51.668269 -0.548695 6.431542 -10.059140 -28.388427 -36.459576 29.280465 -21.293585 -13.377349 12.057857 -25.295614 -11.827729 43.567464 -11.990874 -30.236643 -6.905547 -123.355895 70.488856 -139.530931 -5.617262 -18.192044 6.329241 -0.000347 0.540678 0.002702 8.191607 -32.456312 8.007254 149.077911 79.474329 154.242339 2.164929 -9.848826 -2.365848 -0.116339 -0.371776 -0.044931
245.821366 56.891042 256.044966 -56.630607 -54.245433 3.026020 -1.539765 22.823088 -1.287586 -0.505527 10.120258 -0.633568 -0.505527 10.120258 -0.633568 -0.367563 7.590731 -0.465483 3.143783 16.471621 2.839126 4.823469 -5.625242 4.149114 0.139590 8.955744 11.078007 48.611749 -33.046965 -37.291961 7.989522 -6.481529 -7.551016 17.977127 -13.818024 -51.568546 -0.530653 6.388177 -10.060276 -28.418797 -36.443305 29.304279 -21.253311 -13.380063 12.032203 -25.372210 -11.856938 43.558112 -11.999507 -30.245594 -6.889467 -123.354143 70.487482 -139.526713 -5.628719 -18.202009 6.337265 0.004826 0.545628 0.000410 8.176128 -32.473988 8.018613 149.178925 79.481817 154.334325 2.183302 -9.845386 -2.364344 -0.110663 -0.375799 -0.046515
